<svg width="307" height="552" xmlns="http://www.w3.org/2000/svg" xmlns:xlink="http://www.w3.org/1999/xlink" xml:space="preserve" overflow="hidden"><defs><clipPath id="clip0"><rect x="782" y="99" width="307" height="552"/></clipPath></defs><g clip-path="url(#clip0)" transform="translate(-782 -99)"><path d="M148.685 551.485C143.471 550.757 136.59 547.877 130.649 543.967 113.492 532.66 101.033 511.411 95.6679 484.402 93.546 473.792 92.6972 464.123 92.6972 451.209 92.7275 435.901 94.0613 421.866 97.1532 404.982 99.2448 393.524 100.609 387.825 109.309 354.359 116.099 328.29 126.102 298.189 138.591 266.209 140.895 260.328 141.895 257.479 141.683 257.206 141.531 256.963 139.015 253.417 136.075 249.264 112.461 216.041 97.0016 189.669 85.6949 163.236 77.0254 143.047 71.7812 123.465 69.8412 104.277 69.144 97.4563 69.144 84.2702 69.8412 77.9044 71.9934 57.9888 78.2076 39.6191 88.5746 22.4316 89.8478 20.34 91.2119 17.7028 91.6362 16.5206 92.7275 13.459 95.8498 5.72916 97.2138 2.69786L98.396 0.060626 102.064 1.75815 105.732 3.42537 104.368 6.48699C93.9703 29.8583 88.5746 53.5328 87.7562 79.2685 87.3924 90.1812 88.1199 97.5473 90.545 107.763 98.9114 143.168 117.069 181.363 148.049 228.681 150.019 231.652 151.717 233.986 151.838 233.835 151.989 233.683 153.293 230.834 154.748 227.499 178.453 173.39 208.159 117.584 235.896 74.9338 238.23 71.3568 241.504 65.9611 243.171 62.9601 253.72 44.0145 262.086 33.2837 269.634 28.9186 270.483 28.4639 272.635 26.7361 274.424 25.0992 279.031 20.9463 282.548 18.7334 285.276 18.3394 286.094 18.2181 286.761 18.2484 286.882 18.4303 286.973 18.5819 285.549 21.1888 283.699 24.2504 281.335 28.1911 280.153 30.4646 279.577 32.253 278.94 34.284 278.698 34.7387 278.273 34.6478 277.637 34.4659 277.303 34.9509 273.878 40.771 235.805 105.671 202.521 171.117 176.21 232.804 171.147 244.656 166.722 255.387 166.722 255.812 166.722 255.993 168.055 257.994 169.692 260.268 171.299 262.541 172.996 264.905 173.421 265.512 178.574 272.817 187.941 285.549 206.401 310.405 213.131 319.499 219.769 328.442 221.133 330.26 229.864 342.022 240.382 356.542 247.354 366.484 249.749 369.91 254.811 376.791 258.57 381.792 267.24 393.342 270.483 397.889 276.606 407.104 294.552 434.204 303.403 455.211 305.586 475.884 306.01 480.037 305.767 490.101 305.131 493.647 304.1 499.407 299.159 511.199 294.764 518.443 284.185 535.813 269.483 542.694 252.416 538.208 236.654 534.085 218.042 519.323 202.643 498.801 200.763 496.315 198.581 493.253 197.792 492.041 196.974 490.828 196.307 489.889 196.246 489.949 196.186 489.98 194.761 494.314 193.094 499.558 188.183 514.806 185.455 521.869 181.666 529.356 178.544 535.51 175.967 539.208 171.935 543.3 167.904 547.423 163.054 550.151 157.931 551.242 155.93 551.667 150.928 551.788 148.685 551.485ZM157.628 543.027C167.419 540.239 174.876 528.901 182.939 504.56 184.152 500.892 187.304 491.374 189.911 483.432 192.518 475.46 194.731 468.942 194.852 468.942 194.973 468.942 195.61 470.215 196.246 471.761 202.097 485.584 209.827 496.648 222.619 509.441 234.289 521.081 244.02 527.477 254.629 530.508 256.903 531.145 257.812 531.236 262.359 531.236 267.209 531.236 267.664 531.175 269.907 530.387 273.908 528.992 278.334 526.204 279.638 524.233 280.486 522.96 282.669 516.443 283.578 512.32 284.73 507.197 285.245 503.317 285.458 497.588 286.488 469.064 272.938 435.295 242.504 390.583 230.985 373.669 219.133 357.724 196.913 329.23 191.396 322.167 186.122 315.407 185.213 314.225 184.303 313.012 181.151 309.011 178.241 305.282 175.33 301.584 172.663 298.159 172.329 297.704 168.328 292.248 157.779 278.91 157.597 279.092 157.052 279.638 149.534 300.463 144.866 314.346 127.618 365.484 118.281 407.134 115.462 445.45 114.947 452.119 114.947 470.822 115.432 476.521 117.645 502.196 123.647 520.202 134.863 534.782 137.742 538.541 138.985 539.663 141.41 540.815 147.412 543.603 152.869 544.361 157.628 543.027Z" fill="#FFFFFF" transform="matrix(1.00249 0 0 -1 782.038 651)"/></g></svg>